<?xml version="1.0" encoding="UTF-8"?>
<svg width="32" height="32" version="1.1" viewBox="0 0 32 32" xml:space="preserve" xmlns="http://www.w3.org/2000/svg"><style type="text/css"><![CDATA[
	.st0{fill-rule:evenodd;clip-rule:evenodd;}
]]></style><path d="m12.26 1c-1.0444 0-2.1646 0.12138-3.3606 0.36472-1.207 0.28413-2.3707 0.88478-3.4906 1.8068-1.6324 1.576-2.4468 3.3306-2.4468 5.266 0 1.6007 0.57562 3.0033 1.7282 4.2092 1.0999 1.2933 2.6984 1.9539 4.7967 1.9802 0.39512 0 0.81786-0.0267 1.2654-0.0775-0.07353 0.20755-0.15433 0.43048-0.24062 0.67688-0.0985 0.23057-0.14795 0.52213-0.14795 0.8698 0 0.57798 0.12886 1.075 0.38857 1.4876 0.22198 0.42453 0.47511 0.82365 0.7598 1.1977-0.9201 0.0244-2.0742 0.14101-3.4651 0.34467-1.4051 0.24362-2.7462 0.73028-4.0212 1.4578-1.1374 0.67787-1.9227 1.4653-2.3547 2.3591-0.44895 0.89512-0.67146 1.7095-0.67146 2.4376 0 1.4967 0.68807 2.7809 2.0604 3.8564 1.3616 1.1493 3.4219 1.7382 6.1819 1.7629 3.2969-0.0505 5.8204-0.83703 7.5671-2.3628 1.6862-1.4753 2.5303-3.1662 2.5303-5.0758-0.02608-1.3444-0.33275-2.4333-0.92238-3.2673-0.62598-0.82049-1.3544-1.5662-2.1845-2.2469l-1.337-1.0958c-0.19256-0.19229-0.39274-0.41698-0.59613-0.67308-0.2414-0.26887-0.36147-0.60732-0.36147-1.0205 0-0.42231 0.11807-0.79294 0.35226-1.1131 0.19978-0.30855 0.41556-0.58393 0.65141-0.827 0.4101-0.35849 0.79679-0.71189 1.1608-1.0562 0.32908-0.34684 0.6405-0.72445 0.93267-1.1343 0.59989-0.84657 0.9121-1.9738 0.9343-3.3833 0-0.7686-0.08672-1.4419-0.25959-2.0182-0.21116-0.57714-0.45291-1.0753-0.72511-1.499-0.28496-0.44701-0.57454-0.82629-0.87144-1.1337-0.30883-0.29523-0.58651-0.51882-0.83512-0.67254h2.4295l2.4328-1.4204h-7.8803zm12.418 0.16854v4.1355h-4.1339v2.003h4.1339v4.1339h2.0035v-4.1339h4.1339v-2.003h-4.1339v-4.1355h-2.0035zm-14.856 1.1364c0.80689 0.02581 1.5208 0.26482 2.1417 0.7121 0.60822 0.47448 1.0992 1.0924 1.4724 1.8491 0.7944 1.5777 1.1923 3.1459 1.1923 4.6981 0 0.36071-0.02983 0.80245-0.08671 1.3294-0.0949 0.52636-0.30892 1.0399-0.64328 1.5402-0.69063 0.70644-1.5546 1.0803-2.5921 1.1186-0.82159 0-1.5513-0.25054-2.1889-0.75221-0.64013-0.50056-1.1603-1.1101-1.5646-1.829-0.8338-1.5416-1.2497-3.0234-1.2497-4.4477-0.02692-1.0788 0.25888-2.0546 0.85572-2.927 0.70838-0.83519 1.5951-1.2656 2.6631-1.2914zm1.6675 17.54c0.08939-4e-5 0.15903 3e-3 0.20919 9e-3 0.33768 0 0.63304 0.0118 0.88498 0.0385 1.4687 1.0261 2.5472 1.8908 3.2381 2.5953 0.65095 0.74279 0.97711 1.6124 0.97711 2.6132 0 1.2314-0.47677 2.2369-1.4307 3.0197-0.97726 0.7944-2.3952 1.2036-4.252 1.2302-2.0708-0.0266-3.7014-0.48705-4.8942-1.3836-1.2542-0.89706-1.8794-2.0383-1.8794-3.4229 0-0.70422 0.14251-1.3066 0.43246-1.8063 0.24945-0.47503 0.55671-0.87233 0.92075-1.1923 0.37708-0.30688 0.74694-0.54508 1.1104-0.71156 0.36404-0.15344 0.64562-0.26945 0.8465-0.34576 0.85323-0.25666 1.6883-0.44222 2.5037-0.55765 0.62056-0.0574 1.065-0.0861 1.3332-0.0862z" fill="#fff"/></svg>
