<svg xmlns="http://www.w3.org/2000/svg" width="32" height="32"><path d="M15.96 31c-.9 0-1.35-.45-1.35-1.34l.1-10.66-9.1 5.69c-.69.48-1.27.34-1.76-.41l-.51-.83c-.49-.7-.35-1.28.41-1.76L13.16 16l-9.51-5.69c-.7-.41-.83-1-.42-1.76l.62-1.03c.35-.55.9-.62 1.66-.21L14.7 13l-.1-10.65c0-.9.45-1.35 1.35-1.35h.82c.9 0 1.35.45 1.35 1.35L18.03 13l9.1-5.8c.62-.34 1.2-.2 1.76.42l.51.83c.35.76.21 1.34-.41 1.76L19.48 16l9.62 5.8c.68.4.82.96.4 1.65l-.5.93c-.49.76-1.11.9-1.87.41L18.03 19l.1 10.65c0 .9-.45 1.35-1.35 1.35h-.83"/></svg>