<?xml version="1.0" encoding="UTF-8"?>
<svg width="32" height="32" version="1.1" xmlns="http://www.w3.org/2000/svg">
 <path d="m21.612 4.6195c0.05279-2e-3 0.10602 0 0.15913 0 1.7703 0 3.3696 0.74756 4.4919 1.9436 1.4025-0.27648 2.7206-0.78997 3.91-1.4958-0.45979 1.4384-1.4359 2.6441-2.7074 3.4053 1.2454-0.14798 2.432-0.47815 3.5349-0.96839-0.82458 1.2344-1.869 2.3188-3.0712 3.1848 0.01156 0.26431 0.01819 0.53117 0.01819 0.79791 0 8.1337-6.1913 17.513-17.513 17.513-3.4755 0-6.7093-1.0193-9.434-2.7665 0.48171 0.0572 0.97219 0.0864 1.4685 0.0864 2.8842 0 5.5361-0.98372 7.6426-2.6347-2.693-0.0493-4.9653-1.8309-5.749-4.276 0.37575 0.0725 0.76229 0.11139 1.1594 0.11139 0.56149 0 1.1044-0.0759 1.6208-0.21596-2.816-0.56635-4.9375-3.0516-4.9375-6.0332 0-0.0262-4.66e-4 -0.054 0-0.0796 0.83006 0.46101 1.7808 0.73835 2.7893 0.77063-1.6516-1.1035-2.7393-2.9865-2.7393-5.1216 0-1.1291 0.30446-2.1875 0.83428-3.0962 3.0358 3.724 7.5714 6.174 12.687 6.431-0.10536-0.45126-0.15913-0.92088-0.15913-1.4026 0-3.3463 2.6692-6.0694 5.9945-6.1537z" fill="#fff"/>
</svg>
