<?xml version="1.0" encoding="utf-8"?>
<!-- Generator: Adobe Illustrator 24.0.1, SVG Export Plug-In . SVG Version: 6.00 Build 0)  -->
<svg version="1.1" id="Layer_1" xmlns="http://www.w3.org/2000/svg" xmlns:xlink="http://www.w3.org/1999/xlink" x="0px" y="0px"
	 viewBox="0 0 32 32" style="enable-background:new 0 0 32 32;" xml:space="preserve">
<style type="text/css">
	.st0{fill:#FFFFFF;}
</style>
<path class="st0" d="M28.8,3.5c-0.4,0.1-0.7,0.2-1.1,0.3c-1.3,0.5-2.7,1-4,1.5C18,7.4,12.4,9.5,6.9,11.8c-1.7,0.7-3.5,1.5-5.2,2.3
	C1,14.4,0.8,14.9,1,15.5c0.2,0.4,0.6,0.6,1,0.8c1.5,0.5,3,1,4.5,1.5c0.7,0.2,1.4,0.4,2,0.7c0.2,0,0.3-0.1,0.5-0.2
	c0.3-0.2,14.9-9.5,15.5-9.9c0.1-0.1,0.3-0.1,0.4,0c0.1,0.2,0,0.3-0.1,0.5C24.7,9,12.7,19.7,12.4,20c-0.1,0.1-0.1,0.4-0.2,0.5
	c0,0.3-0.8,6.8-0.8,6.8s0.2,0.2,0.4,0.1c0.3,0,0.5-0.2,0.6-0.3c1.3-1.2,2.5-2.4,3.8-3.5c0.1-0.1,0.1-0.1,0.2-0.1
	c0.2,0.1,4.4,3.4,6.4,4.9c1,0.8,2.4,0.3,2.6-1c0.4-1.9,0.9-3.9,1.3-5.8c0.3-1.5,0.6-3,0.9-4.5s0.6-3,0.9-4.5c0.5-2.7,1.1-5.3,1.5-8
	C30.1,3.8,29.6,3.3,28.8,3.5z"/>
</svg>
